<svg width="64" height="64" viewBox="0 0 64 64" fill="none" xmlns="http://www.w3.org/2000/svg"> <path d="M48.4363 17.6988L51.4729 14.6621C52.001 14.134 52.001 13.3418 51.4729 12.8137C50.9448 12.2856 50.1526 12.2856 49.6245 12.8137L46.5879 15.8504C46.0598 16.3785 46.0598 17.1707 46.5879 17.6988C47.38 18.3589 48.1722 17.9628 48.4363 17.6988Z" fill="white"/> <path d="M53.8494 33.4101H58.2064C58.9985 33.4101 59.5266 32.882 59.5266 32.0899C59.5266 31.2977 58.9985 30.7696 58.2064 30.7696H53.8494C53.0573 30.7696 52.5291 31.2977 52.5291 32.0899C52.5291 32.882 53.1893 33.4101 53.8494 33.4101Z" fill="white"/> <path d="M48.4363 46.4809C47.9082 45.9528 47.116 45.9528 46.5879 46.4809C46.0598 47.0091 46.0598 47.8012 46.5879 48.3293L49.6245 51.366C50.4167 52.0261 51.2089 51.63 51.4729 51.366C52.001 50.8379 52.001 50.0457 51.4729 49.5176L48.4363 46.4809Z" fill="white"/> <path d="M32.1968 63.7766C49.6245 63.7766 63.8836 49.5176 63.8836 32.0899C63.8836 14.6621 49.6245 0.403076 32.1968 0.403076C14.7691 0.403076 0.51001 14.6621 0.51001 32.0899C0.51001 49.5176 14.7691 63.7766 32.1968 63.7766ZM32.1968 3.04364C48.1722 3.04364 61.243 16.1144 61.243 32.0899C61.243 48.0653 48.1722 61.1361 32.1968 61.1361C16.2214 61.1361 3.15057 48.0653 3.15057 32.0899C3.15057 16.1144 16.2214 3.04364 32.1968 3.04364Z" fill="white"/> <path d="M41.0427 42.7841C41.8349 43.5763 42.627 43.0482 42.8911 42.7841C43.4192 42.256 43.4192 41.4639 42.8911 40.9358L33.5171 31.5617V20.2073C33.5171 19.4151 32.989 18.887 32.1968 18.887C31.4046 18.887 30.8765 19.4151 30.8765 20.2073V32.0899C30.8765 32.4859 31.0085 32.75 31.2726 33.0141L41.0427 42.7841Z" fill="white"/> <path d="M32.1968 11.7575C32.989 11.7575 33.5171 11.2294 33.5171 10.4372V5.94826C33.5171 5.15609 32.989 4.62798 32.1968 4.62798C31.4046 4.62798 30.8765 5.15609 30.8765 5.94826V10.3052C30.8765 11.0974 31.4046 11.7575 32.1968 11.7575Z" fill="white"/> <path d="M32.1968 59.5517C32.989 59.5517 33.5171 59.0236 33.5171 58.2315V53.8745C33.5171 53.0824 32.989 52.5542 32.1968 52.5542C31.4046 52.5542 30.8765 53.0824 30.8765 53.8745V58.2315C30.8765 58.8916 31.4046 59.5517 32.1968 59.5517Z" fill="white"/> <path d="M14.637 51.498L17.6737 48.4614C18.2018 47.9333 18.2018 47.1411 17.6737 46.613C17.1456 46.0849 16.3534 46.0849 15.8253 46.613L12.7886 49.6496C12.2605 50.1777 12.2605 50.9699 12.7886 51.498C13.5808 52.1582 14.373 51.7621 14.637 51.498Z" fill="white"/> <path d="M10.4121 30.7696H6.0552C5.26303 30.7696 4.73491 31.2977 4.73491 32.0899C4.73491 32.882 5.26303 33.4101 6.0552 33.4101H10.4121C11.2043 33.4101 11.7324 32.882 11.7324 32.0899C11.7324 31.2977 11.2043 30.7696 10.4121 30.7696Z" fill="white"/> <path d="M15.9573 17.6988C16.2214 17.9628 17.1456 18.4909 17.8057 17.6988C18.3338 17.1707 18.3338 16.3785 17.8057 15.8504L14.7691 12.8137C14.2409 12.2856 13.4488 12.2856 12.9207 12.8137C12.3926 13.3418 12.3926 14.134 12.9207 14.6621L15.9573 17.6988Z" fill="white"/> </svg>