<svg width="53" height="62" viewBox="0 0 53 62" fill="none" xmlns="http://www.w3.org/2000/svg"> <path fill-rule="evenodd" clip-rule="evenodd" d="M52.1982 8.47225C52.1982 3.98154 44.5639 0.888916 35.2982 0.888916C26.0326 0.888916 18.3982 3.98154 18.3982 8.47225C18.3982 12.963 26.0326 16.0556 35.2982 16.0556C44.5639 16.0556 52.1982 12.963 52.1982 8.47225ZM20.9982 8.47225C20.9982 5.9827 27.3326 3.41669 35.2982 3.41669C43.2639 3.41669 49.5982 5.9827 49.5982 8.47225C49.5982 10.9618 43.2639 13.5278 35.2982 13.5278C27.3326 13.5278 20.9982 10.9618 20.9982 8.47225Z" fill="white"/> <path fill-rule="evenodd" clip-rule="evenodd" d="M18.3982 16.0556C18.3982 20.5463 26.0326 23.6389 35.2982 23.6389C44.5639 23.6389 52.1982 20.5463 52.1982 16.0556V8.47225H49.5982V16.0556C49.5982 18.5451 43.2639 21.1111 35.2982 21.1111C27.3326 21.1111 20.9982 18.5451 20.9982 16.0556V8.47225H18.3982V16.0556Z" fill="white"/> <path fill-rule="evenodd" clip-rule="evenodd" d="M18.3983 23.6618C18.3983 23.6542 18.3982 23.6466 18.3982 23.6389V16.0556H20.9982V23.6389C20.9982 23.7093 21.0033 23.7798 21.0133 23.8503C20.1718 23.7578 19.2977 23.6936 18.3983 23.6618ZM31.449 31.0383C32.6873 31.1593 33.9761 31.2223 35.2982 31.2223C44.5639 31.2223 52.1982 28.1296 52.1982 23.6389V16.0556H49.5982V23.6389C49.5982 26.1285 43.2639 28.6945 35.2982 28.6945C33.9378 28.6945 32.625 28.6196 31.3831 28.4831C31.3932 28.5536 31.3982 28.6241 31.3982 28.6945C31.3982 28.9044 31.4173 29.7602 31.449 31.0383Z" fill="white"/> <path fill-rule="evenodd" clip-rule="evenodd" d="M31.6488 38.6406C32.8257 38.7492 34.0471 38.8056 35.2982 38.8056C44.5639 38.8056 52.1982 35.713 52.1982 31.2223V23.6389H49.5982V31.2223C49.5982 33.7118 43.2639 36.2778 35.2982 36.2778C34.0096 36.2778 32.7636 36.2107 31.5803 36.0875C31.6022 36.9089 31.6252 37.7659 31.6488 38.6406ZM20.9982 23.8486V23.6389H18.3982L18.3983 23.6618C19.2924 23.6934 20.1614 23.757 20.9982 23.8486Z" fill="white"/> <path fill-rule="evenodd" clip-rule="evenodd" d="M33.9982 31.2223C33.9982 26.7315 26.3639 23.6389 17.0982 23.6389C7.8326 23.6389 0.198242 26.7315 0.198242 31.2223C0.198242 35.713 7.8326 38.8056 17.0982 38.8056C26.3639 38.8056 33.9982 35.713 33.9982 31.2223ZM2.79824 31.2223C2.79824 28.7327 9.1326 26.1667 17.0982 26.1667C25.0639 26.1667 31.3982 28.7327 31.3982 31.2223C31.3982 33.7118 25.0639 36.2778 17.0982 36.2778C9.1326 36.2778 2.79824 33.7118 2.79824 31.2223Z" fill="white"/> <path fill-rule="evenodd" clip-rule="evenodd" d="M0.198242 38.8056C0.198242 43.2963 7.8326 46.3889 17.0982 46.3889C26.3639 46.3889 33.9982 43.2963 33.9982 38.8056V31.2223H31.3982V38.8056C31.3982 41.2951 25.0639 43.8611 17.0982 43.8611C9.1326 43.8611 2.79824 41.2951 2.79824 38.8056V31.2223H0.198242V38.8056Z" fill="white"/> <path fill-rule="evenodd" clip-rule="evenodd" d="M0.198242 46.3889C0.198242 50.8796 7.8326 53.9723 17.0982 53.9723C26.3639 53.9723 33.9982 50.8796 33.9982 46.3889V38.8056H31.3982V46.3889C31.3982 48.8785 25.0639 51.4445 17.0982 51.4445C9.1326 51.4445 2.79824 48.8785 2.79824 46.3889V38.8056H0.198242V46.3889Z" fill="white"/> <path fill-rule="evenodd" clip-rule="evenodd" d="M0.198242 53.9723C0.198242 58.463 7.8326 61.5556 17.0982 61.5556C26.3639 61.5556 33.9982 58.463 33.9982 53.9723V46.3889H31.3982V53.9723C31.3982 56.4618 25.0639 59.0278 17.0982 59.0278C9.1326 59.0278 2.79824 56.4618 2.79824 53.9723V46.3889H0.198242V53.9723Z" fill="white"/> <path fill-rule="evenodd" clip-rule="evenodd" d="M31.8565 46.2425C32.9692 46.339 34.1205 46.3889 35.2982 46.3889C44.5639 46.3889 52.1982 43.2963 52.1982 38.8056V31.2223H49.5982V38.8056C49.5982 41.2951 43.2639 43.8611 35.2982 43.8611C34.0842 43.8611 32.908 43.8015 31.7864 43.6917C31.8103 44.5634 31.8338 45.4194 31.8565 46.2425Z" fill="white"/> <path fill-rule="evenodd" clip-rule="evenodd" d="M32.0674 53.8435C33.1145 53.9284 34.1948 53.9723 35.2982 53.9723C44.5639 53.9723 52.1982 50.8796 52.1982 46.3889V38.8056H49.5982V46.3889C49.5982 48.8785 43.2639 51.4445 35.2982 51.4445C34.1597 51.4445 33.0545 51.3921 31.9964 51.2949C32.0327 52.6006 32.0584 53.5193 32.0674 53.8435Z" fill="white"/> </svg>