<svg width="54" height="58" viewBox="0 0 54 58" fill="none" xmlns="http://www.w3.org/2000/svg"> <path d="M52.2093 4.88332H46.5841C46.5841 2.68543 46.4066 1.30077 46.3844 1.10296C46.3568 0.830942 46.2279 0.578883 46.0227 0.395998C45.8176 0.213114 45.5509 0.112535 45.2749 0.113905H8.50623C8.23022 0.112535 7.96361 0.213114 7.75845 0.395998C7.5533 0.578883 7.42433 0.830942 7.39673 1.10296C7.39673 1.30077 7.2303 2.72939 7.19702 4.88332H1.64954C1.35528 4.88332 1.07308 4.9991 0.865004 5.20519C0.656933 5.41128 0.540039 5.6908 0.540039 5.98226C0.540039 6.50975 0.54004 19.1696 6.30942 24.8951C7.1718 25.7815 8.20581 26.4866 9.34963 26.9681C10.4935 27.4496 11.7236 27.6976 12.9664 27.6974C13.266 28.082 13.5655 28.4557 13.8984 28.7963C15.4705 30.5575 17.4185 31.9502 19.6012 32.8734V37.7417C19.6012 38.0332 19.7181 38.3127 19.9262 38.5188C20.1342 38.7249 20.4164 38.8407 20.7107 38.8407H22.3527V45.1706H14.8636C14.5694 45.1706 14.2872 45.2864 14.0791 45.4925C13.871 45.6986 13.7541 45.9781 13.7541 46.2695V56.0611C13.7541 56.3526 13.871 56.6321 14.0791 56.8382C14.2872 57.0443 14.5694 57.1601 14.8636 57.1601H39.0174C39.3116 57.1601 39.5938 57.0443 39.8019 56.8382C40.01 56.6321 40.1269 56.3526 40.1269 56.0611V46.2695C40.1269 45.9781 40.01 45.6986 39.8019 45.4925C39.5938 45.2864 39.3116 45.1706 39.0174 45.1706H31.5283V38.8407H33.0816C33.3758 38.8407 33.658 38.7249 33.8661 38.5188C34.0742 38.3127 34.1911 38.0332 34.1911 37.7417V32.8734C36.3575 31.949 38.29 30.5603 39.8495 28.8073C40.1824 28.4447 40.4819 28.071 40.7815 27.7084C42.0394 27.7218 43.2868 27.4801 44.4469 26.9982C45.607 26.5163 46.6553 25.8043 47.5272 24.9061C53.2966 19.1696 53.3077 6.52075 53.3077 5.99325C53.3092 5.84894 53.2819 5.70574 53.2275 5.57186C53.1731 5.43797 53.0926 5.31601 52.9906 5.21294C52.8886 5.10988 52.7671 5.02772 52.633 4.97116C52.499 4.9146 52.355 4.88475 52.2093 4.88332ZM37.9079 54.9622H15.9731V47.3685H37.9079V54.9622ZM29.3093 45.1706H24.5717V38.8407H29.3093V45.1706ZM21.8202 36.6428V33.6097C23.4588 34.0481 25.1488 34.2699 26.8462 34.2691H26.9239C28.6212 34.2699 30.3112 34.0481 31.9499 33.6097V36.6428H21.8202ZM26.9239 32.1042V33.2031L26.8462 32.1042C24.7345 32.1751 22.6325 31.7901 20.686 30.976C18.7395 30.1619 16.9951 28.9382 15.5737 27.3897C8.91674 20.0158 9.27178 6.1471 9.51587 2.34476H44.2431C44.4872 6.1471 44.8533 20.0268 38.1853 27.3897C36.7661 28.9379 35.0236 30.1616 33.0789 30.9758C31.1342 31.7899 29.0339 32.1749 26.9239 32.1042ZM7.19702 7.0812C7.30797 12.1693 8.1179 19.5212 11.4242 25.3237C10.0732 25.0136 8.84542 24.3138 7.896 23.3126C3.69101 19.1256 2.93655 10.1253 2.80341 7.04824L7.19702 7.0812ZM46.5841 7.0812H51.0221C50.889 10.2022 50.1345 19.1696 45.9184 23.3456C44.9424 24.362 43.6769 25.0597 42.2904 25.3456C45.6633 19.5432 46.4843 12.1693 46.5841 7.0812Z" fill="white"/> </svg>