<svg width="71" height="71" viewBox="0 0 71 71" fill="none" xmlns="http://www.w3.org/2000/svg"> <path d="M35.4394 11.3243C35.3951 11.3241 35.3508 11.3262 35.3066 11.3302C35.2918 11.337 35.277 11.344 35.2624 11.3514L12.608 15.1116C12.28 15.1701 11.9832 15.3425 11.7698 15.5984C11.5563 15.8543 11.44 16.1773 11.4413 16.5105V25.9604C11.5622 41.7413 21.2439 55.4331 35.1187 59.3973C35.3717 59.4693 35.6398 59.4693 35.8928 59.3973C49.7675 55.4331 59.4493 41.7413 59.5702 25.9604V16.5105C59.5703 16.1733 59.4501 15.8471 59.2312 15.5906C59.0122 15.3341 58.7089 15.1643 58.3758 15.1116L35.7214 11.3514C35.6287 11.3313 35.5342 11.3255 35.4394 11.3243ZM35.4946 14.1721L56.728 17.722V25.9388C56.6173 40.398 47.8044 52.6515 35.4946 56.4065C23.1994 52.6474 14.3804 40.3991 14.2613 25.9555V17.722L35.4946 14.1721ZM44.0156 25.4523C43.9953 25.4537 43.975 25.4558 43.9547 25.4581C43.5916 25.4755 43.2491 25.6318 42.9981 25.8947L32.6745 36.2182L28.0131 31.557C27.7465 31.2933 27.3862 31.1456 27.0111 31.1466C26.6361 31.1476 26.2767 31.2971 26.0114 31.5623C25.7462 31.8275 25.5967 32.1871 25.5957 32.5621C25.5947 32.9372 25.7421 33.2973 26.0059 33.564L31.6681 39.2263C31.7997 39.3585 31.9561 39.4636 32.1283 39.5352C32.3005 39.6068 32.4852 39.6436 32.6717 39.6436C32.8583 39.6436 33.0429 39.6068 33.2152 39.5352C33.3874 39.4636 33.5438 39.3585 33.6753 39.2263L44.9998 27.902C45.2083 27.707 45.353 27.4535 45.4149 27.1748C45.4768 26.8961 45.4529 26.6051 45.3465 26.3401C45.24 26.0752 45.0559 25.8484 44.8184 25.69C44.5809 25.5316 44.3011 25.4488 44.0156 25.4523Z" fill="white"/> </svg>