<svg width="51" height="48" viewBox="0 0 51 48" fill="none" xmlns="http://www.w3.org/2000/svg"> <path d="M33.2554 16.3576L33.2393 16.3084C33.2438 16.3213 33.2488 16.3374 33.2554 16.3576ZM18.5925 16.3576L18.6085 16.3084C18.604 16.3213 18.599 16.3374 18.5925 16.3576ZM18.733 16.2568C18.7116 16.2567 18.6945 16.2564 18.6807 16.2567L18.733 16.2568ZM14.202 30.0131L14.1595 29.9828C14.1706 29.991 14.1846 30.0007 14.202 30.0131ZM14.1483 29.85C14.1416 29.8701 14.136 29.8861 14.132 29.8991L14.1483 29.85ZM26.0108 38.3519L25.9685 38.3824C25.9798 38.3745 25.9935 38.3644 26.0108 38.3519ZM14.8665 46.3757C11.409 48.8651 8.52609 46.7927 9.85607 42.7847L14.1148 29.9509L3.02223 22.0374C-0.446249 19.5629 0.660904 16.2178 4.93606 16.227L18.6255 16.2566L22.8273 3.40446C24.1411 -0.614208 27.7083 -0.609205 29.0205 3.40446L33.2223 16.2566L46.9118 16.227C51.1923 16.2178 52.2898 19.566 48.8256 22.0374L37.733 29.9509L41.9918 42.7847C43.3234 46.7977 40.4345 48.862 36.9813 46.3757L25.9239 38.4145L14.8665 46.3757ZM23.9482 35.5643C25.0839 34.7465 26.7647 34.7471 27.8996 35.5643L38.4305 43.1465L34.3746 30.9237C33.9371 29.6055 34.4571 28.0288 35.5956 27.2166L46.16 19.6799L33.1224 19.708C31.7163 19.711 30.3569 18.736 29.9257 17.4169L25.9239 5.1767L21.9222 17.4169C21.4906 18.7369 20.1305 19.711 18.7254 19.708L5.6878 19.6799L16.2522 27.2166C17.3915 28.0294 17.9104 29.6064 17.4732 30.9237L13.4173 43.1465L23.9482 35.5643Z" fill="white"/> </svg>