<svg width="60" height="55" viewBox="0 0 60 55" fill="none" xmlns="http://www.w3.org/2000/svg"> <path d="M30.3547 51.8243C28.138 52.3091 25.4934 52.5503 22.5984 52.5503C15.583 52.5503 10.3514 51.1574 7.02594 48.374C4.31879 46.0729 2.90508 42.7432 2.90508 38.567C2.90508 28.8804 10.5359 16.7723 16.9388 11.3236C17.9245 11.5057 20.0787 11.929 22.6633 11.929C25.2478 11.929 27.402 11.5648 28.3878 11.3236C31.3426 13.8659 34.6651 17.8009 37.2496 22.2827C37.5573 22.8266 38.2353 23.0087 38.7257 22.706C39.2787 22.4033 39.4638 21.7364 39.1561 21.254C36.6942 16.9547 33.309 12.7166 29.861 9.81302C30.5391 7.39139 31.4623 5.21096 33.3688 2.18367C33.6141 1.81949 33.6141 1.39616 33.3688 1.09346C33.1837 0.729268 32.7533 0.549534 32.3831 0.549534C25.9205 0.913723 19.3951 0.913723 12.9325 0.549534C12.5021 0.488049 12.1318 0.731629 11.9467 1.09346C11.7616 1.45765 11.7616 1.88097 11.9467 2.18367C13.9158 5.21071 14.7789 7.45024 15.4545 9.81302C12.9925 11.9319 10.6532 14.5948 8.74692 17.2601C3.70283 24.3404 0.687744 32.3318 0.687744 38.5675C0.687744 44.56 3.51996 54.7313 22.66 54.7313C25.7374 54.7313 28.4446 54.49 30.8466 54.0052C31.3995 53.8846 31.8323 53.2792 31.7073 52.7329C31.5846 52.1275 30.9692 51.7633 30.3537 51.8248L30.3547 51.8243ZM30.4172 2.72453C29.0636 5.14616 28.263 7.14449 27.7101 9.20179C26.7868 9.38389 24.8178 9.68659 22.601 9.68659C20.3843 9.68659 18.4778 9.38389 17.492 9.20179C16.8765 7.14437 16.1384 5.14604 14.7849 2.72453C20.0141 2.96811 25.2459 2.96811 30.4172 2.72453Z" fill="white"/> <path d="M8.38247 39.7162C8.31997 39.1107 7.76699 38.6874 7.21404 38.7465C6.59855 38.808 6.1682 39.3519 6.22827 39.8958C6.4134 41.5915 6.84376 46.1909 13.8591 48.2511C13.9817 48.3126 14.0442 48.3126 14.1668 48.3126C14.6597 48.3126 15.09 48.0099 15.2126 47.525C15.3978 46.9811 15.09 46.3757 14.4746 46.1936C8.81258 44.5595 8.50508 41.168 8.38247 39.7162Z" fill="white"/> <path d="M43.7101 24.34C35.2158 24.34 28.2602 31.1817 28.2602 39.537C28.2602 47.8922 35.2158 54.7339 43.7101 54.7339C52.2045 54.7339 59.1601 47.8922 59.1601 39.537C59.1601 31.1793 52.2045 24.34 43.7101 24.34ZM43.7101 52.5508C36.3871 52.5508 30.4772 46.6788 30.4772 39.5345C30.4772 32.3902 36.4469 26.5183 43.7101 26.5183C50.9735 26.5183 56.9431 32.3902 56.9431 39.5345C56.9431 46.6788 51.0358 52.5508 43.7101 52.5508Z" fill="white"/> <path d="M42.7869 34.388H44.5708C45.5566 34.388 46.3548 35.1755 46.3548 36.1427C46.3548 36.7481 46.8476 37.2329 47.4631 37.2329C48.0786 37.2329 48.5715 36.7481 48.5715 36.1427C48.5715 34.0853 46.9102 32.3896 44.816 32.269V30.9967C44.816 30.3913 44.3232 29.9065 43.7077 29.9065C43.0922 29.9065 42.5993 30.3913 42.5993 30.9967V32.269C40.5076 32.3896 38.8439 34.0237 38.8439 36.1427V36.7481C38.8439 38.867 40.6278 40.6217 42.782 40.6217H44.5659C45.5517 40.6217 46.3498 41.4092 46.3498 42.3764V42.9818C46.3498 43.9515 45.5492 44.7366 44.5659 44.7366H42.782C41.7962 44.7366 40.9981 43.949 40.9981 42.9818C40.9981 42.3764 40.5052 41.8916 39.8897 41.8916C39.2742 41.8916 38.7813 42.3764 38.7813 42.9818C38.7813 45.0393 40.4426 46.7349 42.5368 46.8555V48.1278C42.5368 48.7332 43.0296 49.218 43.6451 49.218C44.2606 49.218 44.7535 48.7332 44.7535 48.1278V46.8555C46.8452 46.7349 48.509 45.1008 48.509 42.9818V42.3764C48.509 40.2575 46.725 38.5028 44.5708 38.5028H42.7869C41.8011 38.5028 41.003 37.7153 41.003 36.7481V36.1427C41.0655 35.1754 41.8637 34.388 42.7869 34.388Z" fill="white"/> </svg>