<svg width="53" height="53" viewBox="0 0 53 53" fill="none" xmlns="http://www.w3.org/2000/svg"> <path d="M45.412 37.0093L36.1837 32.1724C34.3272 31.2272 32.0884 31.7276 30.8324 33.3955L28.1022 36.9537C25.4812 35.4526 23.2424 33.8959 20.6213 31.2272C17.9457 28.5029 16.4167 26.2234 14.8878 23.4992L18.3279 20.7749C19.9661 19.4962 20.4575 17.1611 19.4746 15.3264L14.724 5.98602C14.1779 4.87407 13.1405 4.09571 11.9937 3.76212C10.7924 3.42854 9.53653 3.65093 8.55364 4.37369L2.76552 8.26551C1.01816 9.43305 0.0352752 11.4902 0.19909 13.6029C0.362905 15.9935 0.581324 17.8838 0.963559 19.1626C2.71092 26.0567 6.91549 33.1731 12.8674 39.1776C18.7648 45.1821 25.7542 49.4631 32.5252 51.2978C33.8357 51.6314 35.6377 51.9094 38.0403 52.0762C38.1495 52.0762 38.3133 52.0762 38.4225 52.0762C40.3883 52.0762 42.2449 51.0755 43.2824 49.3519L47.1047 43.2918C47.76 42.2355 47.9784 41.0123 47.6508 39.7892C47.2685 38.6217 46.5041 37.6209 45.412 37.0093ZM44.9751 41.9019L41.1528 47.962C40.4975 48.9628 39.3508 49.5743 38.1495 49.5187C35.9653 49.3519 34.2179 49.1296 33.1258 48.8516C26.7917 47.1836 20.1845 43.125 14.6148 37.3985C8.99048 31.672 5.00432 25.0003 3.36617 18.551C3.09315 17.4391 2.82013 15.66 2.71092 13.4361C2.65631 12.2129 3.20236 11.0454 4.18525 10.3782L10.028 6.3752C10.301 6.15281 10.6832 6.04161 11.0109 6.04161C11.1747 6.04161 11.3385 6.04161 11.4477 6.09721C11.9391 6.2084 12.376 6.54199 12.5944 7.04236L17.345 16.3827C17.7273 17.1611 17.5088 18.1062 16.8536 18.6622L12.5944 22.0536C12.103 22.4428 11.9937 23.11 12.2668 23.666C14.0141 27.0018 15.7069 29.7261 18.9286 32.9507C22.0411 36.1198 24.6621 37.8989 27.8838 39.678C28.4298 39.956 29.0851 39.8448 29.4673 39.3444L32.8528 34.9522C33.3989 34.2851 34.3272 34.0627 35.0916 34.4519L44.3199 39.2888C44.7567 39.5112 45.0843 39.956 45.2481 40.4564C45.3027 40.9567 45.2481 41.4571 44.9751 41.9019Z" fill="white"/> <path d="M51.8553 11.7125C51.2547 8.04312 49.2889 4.87407 46.3402 2.76137C43.3916 0.648671 39.7876 -0.240887 36.2383 0.370684C28.8121 1.64942 23.843 8.82148 25.0989 16.3271C25.2627 17.4391 25.5904 18.4954 26.0272 19.4962L23.57 24.8891C23.1332 25.7787 23.297 26.835 24.0068 27.5578C24.4437 28.0582 25.0989 28.3361 25.7542 28.3361C26.0272 28.3361 26.3002 28.2805 26.6279 28.1694L31.9791 26.0567C34.6548 27.5578 37.7673 28.1138 40.8251 27.5578C44.3745 26.9462 47.5415 24.9447 49.6165 21.9424C51.6915 18.9958 52.5106 15.3264 51.8553 11.7125ZM47.5415 20.4969C45.8488 22.9432 43.2824 24.5555 40.3883 25.1115C37.7673 25.5563 35.037 25.0559 32.7436 23.6104C32.416 23.388 31.9791 23.388 31.6515 23.4992L26.0272 25.6675L28.5936 20.0521C28.7575 19.7186 28.7575 19.2738 28.5936 18.9402C28.1022 17.9394 27.7746 16.9387 27.6108 15.8823C26.5733 9.76663 30.6686 3.92891 36.6752 2.87256C39.5692 2.37219 42.5179 3.03936 44.9205 4.76287C47.3231 6.48639 48.9067 9.09947 49.4527 12.0461C49.8896 15.104 49.2343 18.0506 47.5415 20.4969Z" fill="white"/> <path d="M38.5317 21.4421C39.3158 21.4421 39.9515 20.7949 39.9515 19.9965C39.9515 19.1982 39.3158 18.551 38.5317 18.551C37.7476 18.551 37.112 19.1982 37.112 19.9965C37.112 20.7949 37.7476 21.4421 38.5317 21.4421Z" fill="white"/> <path d="M39.2962 6.70878C38.0949 6.48639 36.839 6.81997 35.9107 7.65393C34.9824 8.4323 34.4364 9.65544 34.4364 10.8786C34.4364 11.5457 34.9824 12.1017 35.6377 12.1017C36.2929 12.1017 36.839 11.5457 36.839 10.8786C36.839 10.3226 37.0574 9.82223 37.4942 9.48865C37.8765 9.15506 38.4225 8.98827 38.9686 9.09947C39.6784 9.21066 40.2791 9.82223 40.3883 10.545C40.5521 11.6013 39.8969 12.3797 39.187 12.6021C38.1495 12.9357 37.4396 13.9364 37.4396 15.0484V16.3271C37.4396 16.9943 37.9857 17.5503 38.6409 17.5503C39.2962 17.5503 39.8423 16.9943 39.8423 16.3271V15.0484C39.8423 14.9372 39.8969 14.8816 39.9515 14.8816C41.9172 14.2144 43.1185 12.2129 42.7363 10.1002C42.3541 8.4323 40.989 7.04236 39.2962 6.70878Z" fill="white"/> </svg>