<svg width="130" height="130" viewBox="0 0 130 130" fill="none" xmlns="http://www.w3.org/2000/svg">
<g opacity="0.5" filter="url(#filter0_b_298_2544)">
<rect x="2" y="2" width="126" height="126" rx="28" fill="url(#paint0_linear_298_2544)"/>
<rect x="1.3" y="1.3" width="127.4" height="127.4" rx="28.7" stroke="url(#paint1_radial_298_2544)" stroke-width="1.4"/>
</g>
<circle cx="48.1992" cy="54.0801" r="21" fill="url(#paint2_linear_298_2544)"/>
<g filter="url(#filter1_b_298_2544)">
<path fill-rule="evenodd" clip-rule="evenodd" d="M97.2002 64.999C97.2002 80.463 84.6642 92.999 69.2002 92.999C53.7362 92.999 41.2002 80.463 41.2002 64.999C41.2002 49.5351 53.7362 36.999 69.2002 36.999C84.6642 36.999 97.2002 49.5351 97.2002 64.999Z" fill="#943050" fill-opacity="0.35"/>
<path d="M69.2002 93.419C84.8961 93.419 97.6202 80.695 97.6202 64.999C97.6202 49.3031 84.8961 36.579 69.2002 36.579C53.5043 36.579 40.7802 49.3031 40.7802 64.999C40.7802 80.695 53.5043 93.419 69.2002 93.419Z" stroke="url(#paint3_linear_298_2544)" stroke-width="0.84" stroke-linecap="round"/>
</g>
<g filter="url(#filter2_d_298_2544)">
<path fill-rule="evenodd" clip-rule="evenodd" d="M69.2004 60.099C70.3602 60.099 71.3004 61.0392 71.3004 62.199V78.999C71.3004 80.1588 70.3602 81.099 69.2004 81.099C68.0406 81.099 67.1004 80.1588 67.1004 78.999V62.199C67.1004 61.0392 68.0406 60.099 69.2004 60.099ZM69.2004 56.599C70.7468 56.599 72.0004 55.3454 72.0004 53.799C72.0004 52.2526 70.7468 50.999 69.2004 50.999C67.654 50.999 66.4004 52.2526 66.4004 53.799C66.4004 55.3454 67.654 56.599 69.2004 56.599Z" fill="url(#paint4_linear_298_2544)"/>
</g>
<defs>
<filter id="filter0_b_298_2544" x="-58.2004" y="-58.2004" width="246.401" height="246.401" filterUnits="userSpaceOnUse" color-interpolation-filters="sRGB">
<feFlood flood-opacity="0" result="BackgroundImageFix"/>
<feGaussianBlur in="BackgroundImageFix" stdDeviation="29.4"/>
<feComposite in2="SourceAlpha" operator="in" result="effect1_backgroundBlur_298_2544"/>
<feBlend mode="normal" in="SourceGraphic" in2="effect1_backgroundBlur_298_2544" result="shape"/>
</filter>
<filter id="filter1_b_298_2544" x="16.3604" y="12.1592" width="105.68" height="105.68" filterUnits="userSpaceOnUse" color-interpolation-filters="sRGB">
<feFlood flood-opacity="0" result="BackgroundImageFix"/>
<feGaussianBlur in="BackgroundImageFix" stdDeviation="12"/>
<feComposite in2="SourceAlpha" operator="in" result="effect1_backgroundBlur_298_2544"/>
<feBlend mode="normal" in="SourceGraphic" in2="effect1_backgroundBlur_298_2544" result="shape"/>
</filter>
<filter id="filter2_d_298_2544" x="63.1446" y="47.7432" width="18.6229" height="43.1229" filterUnits="userSpaceOnUse" color-interpolation-filters="sRGB">
<feFlood flood-opacity="0" result="BackgroundImageFix"/>
<feColorMatrix in="SourceAlpha" type="matrix" values="0 0 0 0 0 0 0 0 0 0 0 0 0 0 0 0 0 0 127 0" result="hardAlpha"/>
<feOffset dx="3.25583" dy="3.25583"/>
<feGaussianBlur stdDeviation="3.25583"/>
<feColorMatrix type="matrix" values="0 0 0 0 0.8 0 0 0 0 0.156863 0 0 0 0 0.32549 0 0 0 0.5 0"/>
<feBlend mode="normal" in2="BackgroundImageFix" result="effect1_dropShadow_298_2544"/>
<feBlend mode="normal" in="SourceGraphic" in2="effect1_dropShadow_298_2544" result="shape"/>
</filter>
<linearGradient id="paint0_linear_298_2544" x1="2" y1="2" x2="170.576" y2="72.9674" gradientUnits="userSpaceOnUse">
<stop stop-color="white" stop-opacity="0.47"/>
<stop offset="1" stop-color="white" stop-opacity="0"/>
</linearGradient>
<radialGradient id="paint1_radial_298_2544" cx="0" cy="0" r="1" gradientUnits="userSpaceOnUse" gradientTransform="translate(2 2) rotate(47.959) scale(206.122 347.477)">
<stop stop-color="white" stop-opacity="0.7"/>
<stop offset="1" stop-color="white" stop-opacity="0"/>
</radialGradient>
<linearGradient id="paint2_linear_298_2544" x1="27.1992" y1="75.0801" x2="70.0942" y2="34.0149" gradientUnits="userSpaceOnUse">
<stop stop-color="#851A47"/>
<stop offset="1" stop-color="#DF2D69"/>
</linearGradient>
<linearGradient id="paint3_linear_298_2544" x1="41.2002" y1="36.999" x2="97.2286" y2="92.9706" gradientUnits="userSpaceOnUse">
<stop stop-color="white" stop-opacity="0.25"/>
<stop offset="1" stop-color="white" stop-opacity="0"/>
</linearGradient>
<linearGradient id="paint4_linear_298_2544" x1="69.2475" y1="87.5116" x2="83.9152" y2="84.8367" gradientUnits="userSpaceOnUse">
<stop stop-color="white"/>
<stop offset="1" stop-color="white" stop-opacity="0.2"/>
</linearGradient>
</defs>
</svg>
