<svg width="92" height="92" viewBox="0 0 92 92" fill="none" xmlns="http://www.w3.org/2000/svg">
<g opacity="0.5" filter="url(#filter0_b_298_2547)">
<rect x="1" y="1" width="90" height="90" rx="20" fill="url(#paint0_linear_298_2547)"/>
<rect x="0.5" y="0.5" width="91" height="91" rx="20.5" stroke="url(#paint1_radial_298_2547)"/>
</g>
<path d="M49.0777 46.7954C45.0259 42.7436 43 40.7177 43 38.2002C43 35.6827 45.0259 33.6568 49.0777 29.605L49.4048 29.2779C53.4566 25.2261 55.4825 23.2002 58 23.2002C60.5175 23.2002 62.5434 25.2261 66.5952 29.2779L66.9223 29.605C70.9741 33.6568 73 35.6827 73 38.2002C73 40.7177 70.9741 42.7436 66.9223 46.7954L66.5952 47.1225C62.5434 51.1743 60.5175 53.2002 58 53.2002C55.4825 53.2002 53.4566 51.1743 49.4048 47.1225L49.0777 46.7954Z" fill="url(#paint2_linear_298_2547)"/>
<g filter="url(#filter1_b_298_2547)">
<path fill-rule="evenodd" clip-rule="evenodd" d="M42.4296 28.8608C42.8095 28.842 43.1901 28.842 43.5701 28.8608C45.0368 28.9336 46.3871 29.3598 47.8924 30.0584C49.3579 30.7384 51.0607 31.7215 53.215 32.9653L53.3371 33.0358C55.4914 34.2796 57.1943 35.2628 58.516 36.1919C59.8736 37.1463 60.9179 38.1026 61.7143 39.3364C61.9206 39.656 62.1109 39.9856 62.2845 40.3241C62.9548 41.6307 63.2609 43.0132 63.4086 44.6662C63.5524 46.2753 63.5524 48.2416 63.5524 50.7291V50.8701C63.5524 53.3577 63.5524 55.3241 63.4086 56.9332C63.2609 58.5861 62.9548 59.9686 62.2845 61.2752C62.1109 61.6137 61.9206 61.9433 61.7143 62.263C60.9179 63.4968 59.8736 64.4531 58.516 65.4075C57.1943 66.3366 55.4914 67.3197 53.3371 68.5635L53.2151 68.6339C51.0608 69.8778 49.3579 70.8609 47.8924 71.541C46.3871 72.2395 45.0368 72.6657 43.5701 72.7385C43.1901 72.7574 42.8095 72.7574 42.4296 72.7385C40.9629 72.6657 39.6125 72.2395 38.1072 71.541C36.6418 70.8609 34.9389 69.8778 32.7847 68.634L32.6624 68.5634C30.5083 67.3197 28.8052 66.3365 27.4836 65.4075C26.126 64.4531 25.0818 63.4968 24.2854 62.263C24.0791 61.9434 23.8887 61.6137 23.7151 61.2752C23.0448 59.9686 22.7387 58.5861 22.591 56.9332C22.4472 55.324 22.4473 53.3577 22.4473 50.8701V50.7292C22.4473 48.2416 22.4472 46.2753 22.591 44.6662C22.7387 43.0132 23.0448 41.6307 23.7151 40.3241C23.8887 39.9856 24.079 39.656 24.2854 39.3364C25.0818 38.1026 26.126 37.1463 27.4836 36.1919C28.8053 35.2628 30.5082 34.2797 32.6625 33.0359L32.7845 32.9654C34.9389 31.7216 36.6417 30.7384 38.1072 30.0584C39.6125 29.3598 40.9628 28.9336 42.4296 28.8608Z" fill="#E7B682" fill-opacity="0.35"/>
<path fill-rule="evenodd" clip-rule="evenodd" d="M42.4296 28.8608C42.8095 28.842 43.1901 28.842 43.5701 28.8608C45.0368 28.9336 46.3871 29.3598 47.8924 30.0584C49.3579 30.7384 51.0607 31.7215 53.215 32.9653L53.3371 33.0358C55.4914 34.2796 57.1943 35.2628 58.516 36.1919C59.8736 37.1463 60.9179 38.1026 61.7143 39.3364C61.9206 39.656 62.1109 39.9856 62.2845 40.3241C62.9548 41.6307 63.2609 43.0132 63.4086 44.6662C63.5524 46.2753 63.5524 48.2416 63.5524 50.7291V50.8701C63.5524 53.3577 63.5524 55.3241 63.4086 56.9332C63.2609 58.5861 62.9548 59.9686 62.2845 61.2752C62.1109 61.6137 61.9206 61.9433 61.7143 62.263C60.9179 63.4968 59.8736 64.4531 58.516 65.4075C57.1943 66.3366 55.4914 67.3197 53.3371 68.5635L53.2151 68.6339C51.0608 69.8778 49.3579 70.8609 47.8924 71.541C46.3871 72.2395 45.0368 72.6657 43.5701 72.7385C43.1901 72.7574 42.8095 72.7574 42.4296 72.7385C40.9629 72.6657 39.6125 72.2395 38.1072 71.541C36.6418 70.8609 34.9389 69.8778 32.7847 68.634L32.6624 68.5634C30.5083 67.3197 28.8052 66.3365 27.4836 65.4075C26.126 64.4531 25.0818 63.4968 24.2854 62.263C24.0791 61.9434 23.8887 61.6137 23.7151 61.2752C23.0448 59.9686 22.7387 58.5861 22.591 56.9332C22.4472 55.324 22.4473 53.3577 22.4473 50.8701V50.7292C22.4473 48.2416 22.4472 46.2753 22.591 44.6662C22.7387 43.0132 23.0448 41.6307 23.7151 40.3241C23.8887 39.9856 24.079 39.656 24.2854 39.3364C25.0818 38.1026 26.126 37.1463 27.4836 36.1919C28.8053 35.2628 30.5082 34.2797 32.6625 33.0359L32.7845 32.9654C34.9389 31.7216 36.6417 30.7384 38.1072 30.0584C39.6125 29.3598 40.9628 28.9336 42.4296 28.8608Z" stroke="url(#paint3_linear_298_2547)" stroke-width="0.6"/>
</g>
<g filter="url(#filter2_d_298_2547)">
<path fill-rule="evenodd" clip-rule="evenodd" d="M54.347 45.7459C54.7119 45.0021 54.4047 44.1034 53.6609 43.7386C52.9172 43.3738 52.0185 43.6809 51.6536 44.4247L48.733 50.3788C47.8277 52.2243 45.167 52.1342 44.3887 50.2316C42.6303 45.9335 36.6194 45.7299 34.5743 49.8992L31.6536 55.8533C31.2888 56.597 31.596 57.4957 32.3397 57.8606C33.0835 58.2254 33.9822 57.9182 34.347 57.1745L37.2677 51.2204C38.173 49.3749 40.8337 49.465 41.612 51.3675C43.3703 55.6656 49.3812 55.8692 51.4264 51.7L54.347 45.7459Z" fill="url(#paint4_linear_298_2547)"/>
</g>
<defs>
<filter id="filter0_b_298_2547" x="-42" y="-42" width="176" height="176" filterUnits="userSpaceOnUse" color-interpolation-filters="sRGB">
<feFlood flood-opacity="0" result="BackgroundImageFix"/>
<feGaussianBlur in="BackgroundImageFix" stdDeviation="21"/>
<feComposite in2="SourceAlpha" operator="in" result="effect1_backgroundBlur_298_2547"/>
<feBlend mode="normal" in="SourceGraphic" in2="effect1_backgroundBlur_298_2547" result="shape"/>
</filter>
<filter id="filter1_b_298_2547" x="7.74648" y="14.1469" width="70.5051" height="73.3059" filterUnits="userSpaceOnUse" color-interpolation-filters="sRGB">
<feFlood flood-opacity="0" result="BackgroundImageFix"/>
<feGaussianBlur in="BackgroundImageFix" stdDeviation="7.2"/>
<feComposite in2="SourceAlpha" operator="in" result="effect1_backgroundBlur_298_2547"/>
<feBlend mode="normal" in="SourceGraphic" in2="effect1_backgroundBlur_298_2547" result="shape"/>
</filter>
<filter id="filter2_d_298_2547" x="29.5465" y="41.6315" width="30.814" height="22.2437" filterUnits="userSpaceOnUse" color-interpolation-filters="sRGB">
<feFlood flood-opacity="0" result="BackgroundImageFix"/>
<feColorMatrix in="SourceAlpha" type="matrix" values="0 0 0 0 0 0 0 0 0 0 0 0 0 0 0 0 0 0 127 0" result="hardAlpha"/>
<feOffset dx="1.9535" dy="1.9535"/>
<feGaussianBlur stdDeviation="1.9535"/>
<feColorMatrix type="matrix" values="0 0 0 0 0.788235 0 0 0 0 0.152941 0 0 0 0 0.666667 0 0 0 0.5 0"/>
<feBlend mode="normal" in2="BackgroundImageFix" result="effect1_dropShadow_298_2547"/>
<feBlend mode="normal" in="SourceGraphic" in2="effect1_dropShadow_298_2547" result="shape"/>
</filter>
<linearGradient id="paint0_linear_298_2547" x1="1" y1="1" x2="121.412" y2="51.691" gradientUnits="userSpaceOnUse">
<stop stop-color="white" stop-opacity="0.47"/>
<stop offset="1" stop-color="white" stop-opacity="0"/>
</linearGradient>
<radialGradient id="paint1_radial_298_2547" cx="0" cy="0" r="1" gradientUnits="userSpaceOnUse" gradientTransform="translate(1 1) rotate(47.959) scale(147.23 248.198)">
<stop stop-color="white" stop-opacity="0.7"/>
<stop offset="1" stop-color="white" stop-opacity="0"/>
</radialGradient>
<linearGradient id="paint2_linear_298_2547" x1="43" y1="53.2002" x2="73.6392" y2="23.8679" gradientUnits="userSpaceOnUse">
<stop stop-color="#E5BB89"/>
<stop offset="1" stop-color="#FFB780"/>
</linearGradient>
<linearGradient id="paint3_linear_298_2547" x1="22.4473" y1="28.8467" x2="66.2773" y2="69.8391" gradientUnits="userSpaceOnUse">
<stop stop-color="white" stop-opacity="0.25"/>
<stop offset="1" stop-color="white" stop-opacity="0"/>
</linearGradient>
<linearGradient id="paint4_linear_298_2547" x1="43.194" y1="61.0883" x2="61.2811" y2="32.8264" gradientUnits="userSpaceOnUse">
<stop stop-color="white"/>
<stop offset="1" stop-color="white" stop-opacity="0.2"/>
</linearGradient>
</defs>
</svg>
