<svg width="92" height="92" viewBox="0 0 92 92" fill="none" xmlns="http://www.w3.org/2000/svg">
<g opacity="0.5" filter="url(#filter0_b_298_2543)">
<rect x="1" y="1" width="90" height="90" rx="20" fill="url(#paint0_linear_298_2543)"/>
<rect x="0.5" y="0.5" width="91" height="91" rx="20.5" stroke="url(#paint1_radial_298_2543)"/>
</g>
<g clip-path="url(#clip0_298_2543)">
<g clip-path="url(#clip1_298_2543)">
<path d="M54.3201 43.2176C54.5434 42.384 55.4002 41.8894 56.2338 42.1127C57.0673 42.3361 57.562 43.1928 57.3386 44.0264C57.1153 44.8599 56.2585 45.3546 55.4249 45.1312C54.5914 44.9079 54.0967 44.0511 54.3201 43.2176Z" fill="url(#paint2_linear_298_2543)"/>
<path fill-rule="evenodd" clip-rule="evenodd" d="M60.2778 27.0201C56.4435 25.9927 52.5023 28.2682 51.4749 32.1024L51.1146 33.4472C51.0788 33.5808 50.9769 33.6975 50.8396 33.7154C49.0317 33.9506 47.4068 34.9666 46.4051 36.5091C45.8659 37.3393 45.5648 38.4629 44.9627 40.7103C44.3605 42.9576 44.0594 44.0812 44.1112 45.0698C44.2159 47.0677 45.2708 48.8947 46.9487 49.9844C47.7789 50.5235 48.9025 50.8246 51.1498 51.4268L55.9795 52.7209C58.2268 53.323 59.3505 53.6241 60.339 53.5723C62.3369 53.4676 64.164 52.4128 65.2536 50.7349C65.7928 49.9047 66.0938 48.781 66.696 46.5337C67.2982 44.2864 67.5993 43.1627 67.5475 42.1741C67.4512 40.3375 66.552 38.6452 65.1039 37.5374C64.994 37.4534 64.964 37.3013 64.9998 37.1677L65.3601 35.823C66.3875 31.9887 64.1121 28.0475 60.2778 27.0201ZM60.5088 35.8172C61.062 35.9654 61.5471 36.0954 61.9765 36.2151C62.6517 36.4035 63.3676 36.0149 63.549 35.3377C64.3084 32.5036 62.6266 29.5906 59.7925 28.8312C56.9585 28.0718 54.0454 29.7537 53.2861 32.5877C53.1046 33.2649 53.5302 33.9594 54.2092 34.1339C54.6409 34.2449 55.126 34.3748 55.6792 34.5231L60.5088 35.8172ZM52.509 42.7323C53.0003 40.8985 54.8852 39.8102 56.719 40.3016C58.5528 40.793 59.6411 42.6779 59.1497 44.5117C58.6584 46.3454 56.7734 47.4337 54.9397 46.9423C53.1059 46.451 52.0176 44.5661 52.509 42.7323Z" fill="url(#paint3_linear_298_2543)"/>
</g>
<g clip-path="url(#clip2_298_2543)">
<g filter="url(#filter1_b_298_2543)">
<path fill-rule="evenodd" clip-rule="evenodd" d="M36.9648 25.7153C30.8299 27.3591 27.1892 33.665 28.8331 39.7998L29.4096 41.9514C29.4441 42.0804 29.4945 42.201 29.5581 42.3116C27.0569 44.0744 25.4942 46.892 25.3333 49.9617C25.2504 51.5434 25.7322 53.3413 26.6956 56.937C27.6591 60.5327 28.1409 62.3306 29.0035 63.6589C30.7469 66.3435 33.6702 68.0313 36.8668 68.1988C38.4485 68.2817 40.2463 67.8 43.842 66.8365L51.5695 64.7659C55.1652 63.8025 56.9631 63.3207 58.2914 62.4581C60.976 60.7147 62.6638 57.7914 62.8313 54.5948C62.9142 53.0131 62.4324 51.2152 61.469 47.6195C60.5055 44.0238 60.0238 42.2259 59.1612 40.8976C57.487 38.3196 54.7248 36.6609 51.6773 36.3848C51.6771 36.2572 51.6604 36.1276 51.6259 35.9985L51.0494 33.847C49.4055 27.7121 43.0996 24.0714 36.9648 25.7153ZM44.3226 37.72C46.1873 37.2203 47.5686 36.8502 48.6869 36.6213L48.1516 34.6235C46.9366 30.089 42.2757 27.3981 37.7412 28.6131C33.2068 29.8281 30.5158 34.4889 31.7308 39.0234L32.2661 41.0212C33.3491 40.6603 34.7304 40.2902 36.5951 39.7906L44.3226 37.72Z" fill="#E7B682" fill-opacity="0.35"/>
<path fill-rule="evenodd" clip-rule="evenodd" d="M36.9648 25.7153C30.8299 27.3591 27.1892 33.665 28.8331 39.7998L29.4096 41.9514C29.4441 42.0804 29.4945 42.201 29.5581 42.3116C27.0569 44.0744 25.4942 46.892 25.3333 49.9617C25.2504 51.5434 25.7322 53.3413 26.6956 56.937C27.6591 60.5327 28.1409 62.3306 29.0035 63.6589C30.7469 66.3435 33.6702 68.0313 36.8668 68.1988C38.4485 68.2817 40.2463 67.8 43.842 66.8365L51.5695 64.7659C55.1652 63.8025 56.9631 63.3207 58.2914 62.4581C60.976 60.7147 62.6638 57.7914 62.8313 54.5948C62.9142 53.0131 62.4324 51.2152 61.469 47.6195C60.5055 44.0238 60.0238 42.2259 59.1612 40.8976C57.487 38.3196 54.7248 36.6609 51.6773 36.3848C51.6771 36.2572 51.6604 36.1276 51.6259 35.9985L51.0494 33.847C49.4055 27.7121 43.0996 24.0714 36.9648 25.7153ZM44.3226 37.72C46.1873 37.2203 47.5686 36.8502 48.6869 36.6213L48.1516 34.6235C46.9366 30.089 42.2757 27.3981 37.7412 28.6131C33.2068 29.8281 30.5158 34.4889 31.7308 39.0234L32.2661 41.0212C33.3491 40.6603 34.7304 40.2902 36.5951 39.7906L44.3226 37.72Z" stroke="url(#paint4_linear_298_2543)" stroke-width="0.6"/>
</g>
<g filter="url(#filter2_d_298_2543)">
<path fill-rule="evenodd" clip-rule="evenodd" d="M42.6593 46.9661C39.7252 47.7523 37.984 50.7682 38.7702 53.7022C39.5564 56.6363 42.5722 58.3775 45.5063 57.5913C48.4403 56.8051 50.1815 53.7893 49.3954 50.8552C48.6092 47.9212 45.5933 46.18 42.6593 46.9661ZM41.668 52.9258C41.3106 51.5921 42.1021 50.2213 43.4357 49.8639C44.7694 49.5066 46.1402 50.298 46.4976 51.6317C46.8549 52.9654 46.0635 54.3362 44.7298 54.6936C43.3962 55.0509 42.0253 54.2595 41.668 52.9258Z" fill="url(#paint5_linear_298_2543)"/>
</g>
</g>
</g>
<defs>
<filter id="filter0_b_298_2543" x="-42" y="-42" width="176" height="176" filterUnits="userSpaceOnUse" color-interpolation-filters="sRGB">
<feFlood flood-opacity="0" result="BackgroundImageFix"/>
<feGaussianBlur in="BackgroundImageFix" stdDeviation="21"/>
<feComposite in2="SourceAlpha" operator="in" result="effect1_backgroundBlur_298_2543"/>
<feBlend mode="normal" in="SourceGraphic" in2="effect1_backgroundBlur_298_2543" result="shape"/>
</filter>
<filter id="filter1_b_298_2543" x="1.02441" y="1.02051" width="86.1162" height="91.4873" filterUnits="userSpaceOnUse" color-interpolation-filters="sRGB">
<feFlood flood-opacity="0" result="BackgroundImageFix"/>
<feGaussianBlur in="BackgroundImageFix" stdDeviation="12"/>
<feComposite in2="SourceAlpha" operator="in" result="effect1_backgroundBlur_298_2543"/>
<feBlend mode="normal" in="SourceGraphic" in2="effect1_backgroundBlur_298_2543" result="shape"/>
</filter>
<filter id="filter2_d_298_2543" x="35.3252" y="43.5215" width="24.0263" height="24.0263" filterUnits="userSpaceOnUse" color-interpolation-filters="sRGB">
<feFlood flood-opacity="0" result="BackgroundImageFix"/>
<feColorMatrix in="SourceAlpha" type="matrix" values="0 0 0 0 0 0 0 0 0 0 0 0 0 0 0 0 0 0 127 0" result="hardAlpha"/>
<feOffset dx="3.25583" dy="3.25583"/>
<feGaussianBlur stdDeviation="3.25583"/>
<feColorMatrix type="matrix" values="0 0 0 0 0.152941 0 0 0 0 0.784314 0 0 0 0 0.235294 0 0 0 0.5 0"/>
<feBlend mode="normal" in2="BackgroundImageFix" result="effect1_dropShadow_298_2543"/>
<feBlend mode="normal" in="SourceGraphic" in2="effect1_dropShadow_298_2543" result="shape"/>
</filter>
<linearGradient id="paint0_linear_298_2543" x1="1" y1="1" x2="121.412" y2="51.691" gradientUnits="userSpaceOnUse">
<stop stop-color="white" stop-opacity="0.47"/>
<stop offset="1" stop-color="white" stop-opacity="0"/>
</linearGradient>
<radialGradient id="paint1_radial_298_2543" cx="0" cy="0" r="1" gradientUnits="userSpaceOnUse" gradientTransform="translate(1 1) rotate(47.959) scale(147.23 248.198)">
<stop stop-color="white" stop-opacity="0.7"/>
<stop offset="1" stop-color="white" stop-opacity="0"/>
</radialGradient>
<linearGradient id="paint2_linear_298_2543" x1="42.698" y1="49.1621" x2="73.4765" y2="35.0001" gradientUnits="userSpaceOnUse">
<stop stop-color="#E5BB89"/>
<stop offset="1" stop-color="#FFB780"/>
</linearGradient>
<linearGradient id="paint3_linear_298_2543" x1="42.698" y1="49.1621" x2="73.4765" y2="35.0001" gradientUnits="userSpaceOnUse">
<stop stop-color="#E5BB89"/>
<stop offset="1" stop-color="#FFB780"/>
</linearGradient>
<linearGradient id="paint4_linear_298_2543" x1="19.5781" y1="30.374" x2="68.4948" y2="54.1393" gradientUnits="userSpaceOnUse">
<stop stop-color="white" stop-opacity="0.25"/>
<stop offset="1" stop-color="white" stop-opacity="0"/>
</linearGradient>
<linearGradient id="paint5_linear_298_2543" x1="46.2023" y1="59.831" x2="57.015" y2="41.5269" gradientUnits="userSpaceOnUse">
<stop stop-color="white"/>
<stop offset="1" stop-color="white" stop-opacity="0.2"/>
</linearGradient>
<clipPath id="clip0_298_2543">
<rect width="60" height="60" fill="white" transform="translate(16 16)"/>
</clipPath>
<clipPath id="clip1_298_2543">
<rect width="30" height="30" fill="white" transform="translate(46.1934 21.6289) rotate(15)"/>
</clipPath>
<clipPath id="clip2_298_2543">
<rect width="48" height="48" fill="white" transform="translate(13.0059 29.0293) rotate(-15)"/>
</clipPath>
</defs>
</svg>
