<svg width="106" height="106" viewBox="0 0 106 106" fill="none" xmlns="http://www.w3.org/2000/svg">
<circle opacity="0.6" cx="53" cy="53" r="52.5" transform="matrix(-1 0 0 1 106 0)" stroke="white"/>
<path opacity="0.6" d="M64.3245 53.5745C64.6418 53.2572 64.6418 52.7428 64.3245 52.4255L59.1538 47.2548C58.8365 46.9375 58.3221 46.9375 58.0048 47.2548C57.6875 47.5721 57.6875 48.0865 58.0048 48.4038L62.601 53L58.0048 57.5962C57.6875 57.9135 57.6875 58.4279 58.0048 58.7452C58.3221 59.0625 58.8365 59.0625 59.1538 58.7452L64.3245 53.5745ZM41 53.8125L63.75 53.8125L63.75 52.1875L41 52.1875L41 53.8125Z" fill="white"/>
</svg>
